<svg width="18" height="18" viewBox="0 0 18 18" fill="none" xmlns="http://www.w3.org/2000/svg">
<path d="M8.91321 6.37644C9.25774 6.36504 9.60114 6.42161 9.92381 6.54293C10.2465 6.66424 10.5421 6.84793 10.7938 7.08349C11.0454 7.31905 11.2483 7.60187 11.3906 7.91582C11.533 8.22976 11.6122 8.56868 11.6236 8.91321C11.635 9.25774 11.5784 9.60114 11.4571 9.92381C11.3358 10.2465 11.1521 10.5421 10.9165 10.7938C10.681 11.0454 10.3981 11.2483 10.0842 11.3906C9.77024 11.533 9.43133 11.6122 9.08679 11.6236C8.74226 11.635 8.39886 11.5784 8.07619 11.4571C7.75352 11.3358 7.45791 11.1521 7.20623 10.9165C6.95455 10.681 6.75173 10.3981 6.60936 10.0842C6.46698 9.77024 6.38783 9.43133 6.37644 9.08679C6.36504 8.74226 6.42161 8.39886 6.54293 8.07619C6.66424 7.75352 6.84793 7.45791 7.08349 7.20623C7.31905 6.95455 7.60187 6.75173 7.91582 6.60936C8.22976 6.46698 8.56867 6.38783 8.91321 6.37644Z" fill="#F2430D"/>
<path fill-rule="evenodd" clip-rule="evenodd" d="M10.3395 0.25H7.66047C6.53058 0.249993 5.62832 0.249987 4.90003 0.310469C4.15296 0.372509 3.51089 0.502687 2.92267 0.808242C2.01706 1.27867 1.27867 2.01706 0.808242 2.92267C0.502687 3.51089 0.372509 4.15296 0.310469 4.90003C0.249987 5.62832 0.249993 6.53056 0.25 7.66045V10.3395C0.249993 11.4694 0.249987 12.3717 0.310469 13.1C0.372509 13.847 0.502687 14.4891 0.808242 15.0773C1.27867 15.9829 2.01706 16.7213 2.92267 17.1918C3.51089 17.4973 4.15296 17.6275 4.90003 17.6895C5.62831 17.75 6.53053 17.75 7.66039 17.75H10.3395C11.4694 17.75 12.3717 17.75 13.1 17.6895C13.847 17.6275 14.4891 17.4973 15.0773 17.1918C15.9829 16.7213 16.7213 15.9829 17.1918 15.0773C17.4973 14.4891 17.6275 13.847 17.6895 13.1C17.75 12.3717 17.75 11.4695 17.75 10.3396V7.66047C17.75 6.5306 17.75 5.62831 17.6895 4.90003C17.6275 4.15296 17.4973 3.51089 17.1918 2.92267C16.7213 2.01706 15.9829 1.27867 15.0773 0.808242C14.4891 0.502687 13.847 0.372509 13.1 0.310469C12.3717 0.249987 11.4694 0.249993 10.3395 0.25ZM10.5397 4.90488C10.0019 4.70269 9.42956 4.6084 8.85534 4.62739C8.28112 4.64639 7.71627 4.7783 7.19303 5.01559C6.66979 5.25289 6.19841 5.59092 5.80581 6.01039C5.41321 6.42985 5.10707 6.92254 4.90488 7.46032C4.70269 7.9981 4.6084 8.57044 4.62739 9.14466C4.64639 9.71887 4.7783 10.2837 5.01559 10.807C5.25289 11.3302 5.59092 11.8016 6.01039 12.1942C6.42985 12.5868 6.92254 12.8929 7.46032 13.0951C7.9981 13.2973 8.57044 13.3916 9.14466 13.3726C9.71887 13.3536 10.2837 13.2217 10.807 12.9844C11.3302 12.7471 11.8016 12.4091 12.1942 11.9896C12.5868 11.5701 12.8929 11.0775 13.0951 10.5397C13.2973 10.0019 13.3916 9.42956 13.3726 8.85534C13.3536 8.28113 13.2217 7.71627 12.9844 7.19303C12.7471 6.66979 12.4091 6.19841 11.9896 5.80581C11.5701 5.41321 11.0775 5.10707 10.5397 4.90488ZM13.375 3.75C13.8582 3.75 14.25 4.14175 14.25 4.625C14.25 5.10825 13.8582 5.5 13.375 5.5H13.3633C12.8801 5.5 12.4883 5.10825 12.4883 4.625C12.4883 4.14175 12.8801 3.75 13.3633 3.75H13.375Z" fill="#F2430D"/>
</svg>
